<svg xmlns="http://www.w3.org/2000/svg" width="40" height="40" viewBox="0 0 40 40"><g transform="translate(-1508 -8405)"><path d="M214.89,210.945A3.945,3.945,0,1,1,210.945,207a3.945,3.945,0,0,1,3.945,3.945Zm0,0" transform="translate(1317.055 8214.055)" fill="#fff"/><path d="M154.414,138.211a3.919,3.919,0,0,0-2.246-2.246,6.548,6.548,0,0,0-2.2-.407c-1.248-.057-1.622-.069-4.783-.069s-3.535.012-4.783.069a6.553,6.553,0,0,0-2.2.408,3.921,3.921,0,0,0-2.246,2.246,6.551,6.551,0,0,0-.407,2.2c-.057,1.248-.069,1.622-.069,4.783s.012,3.534.069,4.783a6.548,6.548,0,0,0,.407,2.2,3.919,3.919,0,0,0,2.246,2.246,6.541,6.541,0,0,0,2.2.408c1.248.057,1.622.069,4.782.069s3.535-.012,4.783-.069a6.541,6.541,0,0,0,2.2-.408,3.919,3.919,0,0,0,2.246-2.246,6.555,6.555,0,0,0,.408-2.2c.057-1.248.069-1.622.069-4.783s-.012-3.535-.069-4.783a6.54,6.54,0,0,0-.407-2.2Zm-9.226,13.057a6.077,6.077,0,1,1,6.077-6.077,6.077,6.077,0,0,1-6.077,6.077Zm6.318-10.975a1.418,1.418,0,1,1,1-.415,1.42,1.42,0,0,1-1,.415Zm0,0" transform="translate(1382.813 8279.809)" fill="#fff"/><path d="M20,0A20,20,0,1,0,40,20,20,20,0,0,0,20,0ZM31.415,24.734a8.426,8.426,0,0,1-.534,2.788,5.872,5.872,0,0,1-3.359,3.359,8.431,8.431,0,0,1-2.783.534c-1.224.056-1.616.07-4.734.07s-3.51-.014-4.735-.07a8.431,8.431,0,0,1-2.783-.534,5.872,5.872,0,0,1-3.359-3.359,8.423,8.423,0,0,1-.534-2.783c-.057-1.225-.07-1.616-.07-4.735s.013-3.51.07-4.734a8.426,8.426,0,0,1,.534-2.788,5.876,5.876,0,0,1,3.359-3.359,8.433,8.433,0,0,1,2.788-.534c1.224-.056,1.616-.07,4.734-.07s3.51.014,4.734.07a8.435,8.435,0,0,1,2.788.533,5.874,5.874,0,0,1,3.359,3.359,8.425,8.425,0,0,1,.534,2.788c.056,1.224.069,1.616.069,4.734S31.471,23.51,31.415,24.734Zm0,0" transform="translate(1508 8405)" fill="#fff"/></g></svg>