<svg xmlns="http://www.w3.org/2000/svg" width="40" height="40" viewBox="0 0 40 40"><g transform="translate(-940 -950)"><g transform="translate(940 950)"><path d="M20,0A20,20,0,1,0,40,20,20,20,0,0,0,20,0Zm.424,31.644h0a11.965,11.965,0,0,1-5.72-1.456L8.353,31.852l1.7-6.2a11.971,11.971,0,1,1,10.372,6Zm0,0" fill="#fff"/><path d="M144.308,124.469c-5.643,0-10.234,4.3-10.237,9.576a9.109,9.109,0,0,0,1.564,5.1l.243.362-1.038,3.54,3.873-.953.374.207a10.747,10.747,0,0,0,5.207,1.336h0c5.64,0,10.229-4.3,10.232-9.576a9.218,9.218,0,0,0-2.994-6.774,10.524,10.524,0,0,0-7.233-2.809Zm6.019,13.693a3.176,3.176,0,0,1-2.077,1.37,4.5,4.5,0,0,1-1.938-.114c-.446-.136-1.02-.31-1.754-.606a13.347,13.347,0,0,1-5.254-4.347,5.437,5.437,0,0,1-1.256-2.979,3.158,3.158,0,0,1,1.076-2.4,1.168,1.168,0,0,1,.82-.361c.205,0,.41,0,.589.01s.443-.067.692.494.872,1.993.949,2.137a.5.5,0,0,1,.026.505,8.234,8.234,0,0,1-.768.984c-.136.158-.314.3-.13.588a8.778,8.778,0,0,0,1.711,1.994,8.565,8.565,0,0,0,2.474,1.43c.308.144.487.12.666-.072s.768-.84.973-1.129.41-.24.692-.144,1.794.792,2.1.937.513.216.589.336a2.257,2.257,0,0,1-.182,1.368Zm0,0" transform="translate(-123.891 -114.387)" fill="#fff"/></g></g></svg>