<svg xmlns="http://www.w3.org/2000/svg" width="40" height="40" viewBox="0 0 40 40"><g transform="translate(-1508 -8525)"><path d="M45.72,30.938c.443,0,.656-.352.656-1.054V26.689c0-.7-.213-1.053-.656-1.053s-.657.35-.657,1.053v3.195C45.063,30.587,45.276,30.938,45.72,30.938Z" transform="translate(1481.371 8509.839)" fill="#fff"/><path d="M25.676,50.467h1.6v8.667h1.515V50.467h1.631v-1.42H25.676Z" transform="translate(1492.817 8495.957)" fill="#fff"/><path d="M52.742,51.526a1.843,1.843,0,0,0-1.408.815V49.046H49.973V59.133h1.362V58.4a1.857,1.857,0,0,0,1.408.832,1.078,1.078,0,0,0,1.088-.845,5.984,5.984,0,0,0,.138-1.515V53.885a5.773,5.773,0,0,0-.138-1.51,1.077,1.077,0,0,0-1.089-.849Zm-.136,5.459c0,.679-.2,1.014-.593,1.014a.971.971,0,0,1-.679-.335V53.083a.978.978,0,0,1,.679-.332c.393,0,.593.348.593,1.026Z" transform="translate(1478.454 8495.957)" fill="#fff"/><path d="M40.2,61.012c-.3.427-.588.637-.861.637-.182,0-.286-.107-.319-.319a4.206,4.206,0,0,1-.012-.529V55.268H37.643V61.21a3.831,3.831,0,0,0,.12,1.118.837.837,0,0,0,.877.56,2.182,2.182,0,0,0,1.557-.923v.82H41.56V55.268H40.2Z" transform="translate(1485.744 8492.296)" fill="#fff"/><path d="M20,0A20,20,0,1,0,40,20,20,20,0,0,0,20,0Zm2.224,9.355h1.359v5.537a3.209,3.209,0,0,0,.016.53c.03.211.137.319.32.319.272,0,.559-.211.861-.638V9.355h1.362v7.521H24.78v-.82a2.186,2.186,0,0,1-1.557.923.837.837,0,0,1-.879-.559,3.8,3.8,0,0,1-.12-1.118Zm-5.147,2.453a2.923,2.923,0,0,1,.426-1.772,2.021,2.021,0,0,1,3.18,0,2.954,2.954,0,0,1,.422,1.772v2.634a2.944,2.944,0,0,1-.422,1.769,2.023,2.023,0,0,1-3.18,0,2.913,2.913,0,0,1-.426-1.769ZM13.433,6.783l1.073,3.963,1.031-3.963h1.528l-1.818,6.005v4.087H13.737V12.788A24.857,24.857,0,0,0,12.813,9.6c-.318-.937-.65-1.876-.969-2.812h1.59ZM30.767,30.716a2.819,2.819,0,0,1-2.412,2.192A74.955,74.955,0,0,1,20,33.217a74.949,74.949,0,0,1-8.356-.309,2.817,2.817,0,0,1-2.412-2.192,23.872,23.872,0,0,1-.387-5.275,23.9,23.9,0,0,1,.4-5.275,2.817,2.817,0,0,1,2.411-2.192,74.96,74.96,0,0,1,8.357-.309,74.955,74.955,0,0,1,8.356.309,2.82,2.82,0,0,1,2.413,2.192,23.95,23.95,0,0,1,.386,5.275,23.873,23.873,0,0,1-.4,5.275Z" transform="translate(1508 8525)" fill="#fff"/><path d="M64.257,55.046a1.934,1.934,0,0,0-1.631.77,2.931,2.931,0,0,0-.421,1.771V60.22a2.9,2.9,0,0,0,.438,1.767,1.949,1.949,0,0,0,1.648.77,1.883,1.883,0,0,0,1.646-.815,1.94,1.94,0,0,0,.318-.816c.013-.136.029-.438.029-.878v-.2H64.9a8.917,8.917,0,0,1-.03.922.585.585,0,0,1-.609.546c-.468,0-.7-.347-.7-1.042V59.143h2.724V57.586a2.954,2.954,0,0,0-.422-1.771A1.891,1.891,0,0,0,64.257,55.046Zm.666,2.964H63.561v-.7q0-1.043.684-1.043c.45,0,.679.348.679,1.043Z" transform="translate(1471.221 8492.427)" fill="#fff"/></g></svg>