<svg xmlns="http://www.w3.org/2000/svg" width="16" height="16.199" viewBox="0 0 16 16.199"><g transform="translate(0 0)"><path d="M7.9,9.366a4.694,4.694,0,0,0,2.127-.542.01.01,0,0,1,.009,0,3.039,3.039,0,0,0,1.538.337.386.386,0,0,0,.249-.626,3.826,3.826,0,0,1-.472-.747.012.012,0,0,1,0-.011,4.678,4.678,0,0,0,.117-6.045.237.237,0,0,0-.368.3,4.2,4.2,0,0,1-.105,5.432.484.484,0,0,0-.075.531,4.359,4.359,0,0,0,.427.707,2.986,2.986,0,0,1-1.112-.305A.487.487,0,0,0,9.8,8.4,4.174,4.174,0,0,1,4.91,7.685,4.2,4.2,0,0,1,10.34,1.3a.237.237,0,1,0,.283-.381,4.672,4.672,0,0,0-6.045,7.1A4.648,4.648,0,0,0,7.836,9.366Z" transform="translate(-3.151 0)" fill="#ccc"/><path d="M197.343,122.244a.839.839,0,1,0,.839-.839A.84.84,0,0,0,197.343,122.244Zm1.2,0a.364.364,0,1,1-.364-.364A.365.365,0,0,1,198.546,122.244Z" transform="translate(-191.198 -117.563)" fill="#ccc"/><path d="M124.623,122.244a.839.839,0,1,0,.839-.839A.84.84,0,0,0,124.623,122.244Zm1.2,0a.364.364,0,1,1-.364-.364A.365.365,0,0,1,125.826,122.244Z" transform="translate(-120.779 -117.563)" fill="#ccc"/><path d="M51.9,122.244a.839.839,0,1,0,.839-.839A.84.84,0,0,0,51.9,122.244Zm1.2,0a.364.364,0,1,1-.364-.364A.365.365,0,0,1,53.107,122.244Z" transform="translate(-50.361 -117.563)" fill="#ccc"/><path d="M134.418,30.571a.238.238,0,0,0-.261.211,9.063,9.063,0,0,1-.343,1.637,14.068,14.068,0,0,1-3.158,5.685,12.236,12.236,0,0,1-1.281,1.177q-.235.187-.479.362-.5.361-1.039.673a4.254,4.254,0,0,1-2.754.619q-.2-.036-.381-.088c.53-.4,1-.8,1.509-1.261.583-.527,1.094-1.015,1.561-1.492l0,0,0,0,.276-.3a15.171,15.171,0,0,0,3.815-5.9l.149-.426c.431-1.246.826-2.567,1.178-3.934a3.484,3.484,0,0,1,.7,1.079,3.538,3.538,0,0,1,.234.877.237.237,0,0,0,.47-.065,4.012,4.012,0,0,0-.266-1q-.047-.113-.1-.223a4.257,4.257,0,0,0-1.374-1.566,2.077,2.077,0,0,0-2.024-.439,1.41,1.41,0,0,0-.577.473,1.813,1.813,0,0,0-.238.452c-.014.038-.482,1.518-.657,2.249a1.194,1.194,0,0,0,.356,1.31,2,2,0,0,0,.4.259c.336.17.686.315,1.037.456l.144.058.193.073-.072.205a14.7,14.7,0,0,1-3.7,5.722l-.009.009-.117.125-.248-.244a10.156,10.156,0,0,0-.784-.765,1.29,1.29,0,0,0-1.8-.039,17.7,17.7,0,0,0-1.861,1.58,1.4,1.4,0,0,0,.028,2.2,3.534,3.534,0,0,0,.848.654h0a3.609,3.609,0,0,0,.326.16l.014.005a4.1,4.1,0,0,0,.88.26,3.349,3.349,0,0,0,.6.052,5.042,5.042,0,0,0,2.481-.728q.559-.326,1.085-.7.264-.19.519-.394a13.042,13.042,0,0,0,2.91-3.312q.242-.392.458-.8a16.455,16.455,0,0,0,1.2-2.962,9.536,9.536,0,0,0,.361-1.723.237.237,0,0,0-.211-.261Zm-2.924.443c-.309-.12-.609-.243-.908-.382a2.316,2.316,0,0,1-.54-.31.739.739,0,0,1-.2-.838c.166-.69.616-2.119.642-2.2a1.341,1.341,0,0,1,.175-.333.943.943,0,0,1,.384-.318c.612-.268,1.294.174,1.764.533l.007.005c-.342,1.356-.728,2.668-1.149,3.907Zm-7.48,9.538v0a3.062,3.062,0,0,1-.718-.56c-.544-.57-.554-1.015-.035-1.537a16.987,16.987,0,0,1,1.811-1.536.836.836,0,0,1,1.216.034c.238.187,1,.979,1,.979-.414.416-.865.843-1.371,1.3a19.007,19.007,0,0,1-1.721,1.412C124.131,40.616,124.072,40.585,124.014,40.552Z" transform="translate(-118.631 -25.254)" fill="#ccc"/></g></svg>