<svg xmlns="http://www.w3.org/2000/svg" width="16.765" height="16.5" viewBox="0 0 16.765 16.5"><g transform="translate(0 -4.042)"><g transform="translate(10.533 10.55)"><path d="M327.6,202.874c-.032.007-.789.164-1.429.356a1.613,1.613,0,0,0-1.347,1.482v3.094h-2.167a.972.972,0,0,0-.971.971V212.8h.529v-4.024a.442.442,0,0,1,.441-.441h2.7v-3.623c0-.6.607-.867.969-.975s.786-.211,1.066-.274V208.6a1.148,1.148,0,0,1-1.147,1.147h-2.931l-.383,3.049h.525l.323-2.519h2.465a1.678,1.678,0,0,0,1.676-1.676v-5.8Z" transform="translate(-321.684 -202.808)" fill="#ccc"/></g><g transform="translate(12.955 6.482)"><g transform="translate(0 0)"><path d="M397.916,78.556h0a1.537,1.537,0,0,0-1.534,1.478l-.74,1.7h.739v.882h1.465a1.608,1.608,0,0,0,1.606-1.606v-.918A1.537,1.537,0,0,0,397.916,78.556Zm1.006,2.453a1.078,1.078,0,0,1-1.076,1.076h-.935V81.2h-.461l.461-1.057v-.055a1.007,1.007,0,0,1,1.006-1.006h0a1.007,1.007,0,0,1,1.006,1.006v.918Z" transform="translate(-395.641 -78.556)" fill="#ccc"/></g></g><g transform="translate(0 10.55)"><path d="M5.261,207.806H3.094v-3.094a1.612,1.612,0,0,0-1.347-1.482c-.64-.192-1.4-.349-1.429-.356L0,202.808v5.8a1.678,1.678,0,0,0,1.676,1.676H4.141l.323,2.519H4.99l-.383-3.049H1.676A1.148,1.148,0,0,1,.529,208.6v-5.142c.279.064.7.164,1.066.274s.969.38.969.975v3.623h2.7a.442.442,0,0,1,.441.441V212.8h.529v-4.024A.972.972,0,0,0,5.261,207.806Z" transform="translate(0 -202.808)" fill="#ccc"/></g><g transform="translate(0 6.482)"><g transform="translate(0 0)"><path d="M3.07,80.034a1.537,1.537,0,0,0-1.534-1.478h0A1.537,1.537,0,0,0,0,80.091v.918a1.608,1.608,0,0,0,1.606,1.606H3.071v-.882H3.81ZM2.541,81.2v.882H1.606A1.078,1.078,0,0,1,.529,81.009v-.918a1.007,1.007,0,0,1,1.006-1.006h0a1.007,1.007,0,0,1,1.006,1.006v.055L3,81.2H2.541Z" transform="translate(0 -78.556)" fill="#ccc"/></g></g><g transform="translate(3.971 12.866)"><g transform="translate(0 0)"><path d="M121.263,273.516V275.1h3.715v6.088h.529V275.1h.529v6.088h.529V275.1h3.521v-1.588Zm8.294,1.059h-7.765v-.529h7.765v.529Z" transform="translate(-121.263 -273.516)" fill="#ccc"/></g></g><g transform="translate(3.023 4.042)"><g transform="translate(0 0)"><path d="M101.263,6.8V5.454H99.78V4.042H93.6V5.386L92.321,6.954H93.6V8.1H94.71V7.571h-.576V6.424h-.7l.7-.85v-1h5.118v.882H95.086V9.513h6.176V8.365h1.283Zm-.529,1.039V8.983H95.616V8.1H99.78V6.323h-.529V7.571H95.616V5.983h5.118v1l.7.85Z" transform="translate(-92.321 -4.042)" fill="#ccc"/></g></g><g transform="translate(6.635 10.96)"><g transform="translate(0 0)"><rect width="0.529" height="0.529" fill="#ccc"/><rect width="0.529" height="0.529" transform="translate(1.482)" fill="#ccc"/><rect width="0.529" height="0.529" transform="translate(2.965)" fill="#ccc"/></g></g></g></svg>