<svg xmlns="http://www.w3.org/2000/svg" width="49" height="35.027" viewBox="0 0 49 35.027"><g transform="translate(0 -73)"><g transform="translate(0 73)"><g transform="translate(0 26.031)"><path d="M44.693,354H4.307A4.312,4.312,0,0,1,0,349.689v-.383A4.312,4.312,0,0,1,4.307,345H44.693A4.312,4.312,0,0,1,49,349.307v.383A4.312,4.312,0,0,1,44.693,354ZM4.307,347.871a1.437,1.437,0,0,0-1.436,1.436v.383a1.437,1.437,0,0,0,1.436,1.436H44.693a1.437,1.437,0,0,0,1.436-1.436v-.383a1.437,1.437,0,0,0-1.436-1.436Z" transform="translate(0 -345)" fill="#aaa"/></g><g transform="translate(16.939)"><path d="M190.686,75.871h-12.25a1.436,1.436,0,0,1,0-2.871h12.25a1.436,1.436,0,0,1,0,2.871Z" transform="translate(-177 -73)" fill="#aaa"/></g><g transform="translate(20.002)"><path d="M216.561,82h-6.125A1.436,1.436,0,0,1,209,80.561V74.436A1.436,1.436,0,0,1,210.436,73h6.125A1.436,1.436,0,0,1,218,74.436v6.125A1.436,1.436,0,0,1,216.561,82Zm-4.689-2.871h3.254V75.871h-3.254Z" transform="translate(-209 -73)" fill="#aaa"/></g><g transform="translate(3.158 6.125)"><path d="M74.248,159.777H34.436A1.436,1.436,0,0,1,33,158.342a21.342,21.342,0,1,1,42.684,0A1.436,1.436,0,0,1,74.248,159.777Zm-38.322-2.871H72.757a18.471,18.471,0,0,0-36.831,0Z" transform="translate(-33 -137)" fill="#aaa"/></g></g></g></svg>