<svg xmlns="http://www.w3.org/2000/svg" width="37.03" height="37.027" viewBox="0 0 37.03 37.027"><g transform="translate(-2 -1.999)"><path d="M41.555,21.109A5.555,5.555,0,1,0,36,15.555,5.555,5.555,0,0,0,41.555,21.109Zm0-9.875a4.32,4.32,0,1,1-4.32,4.32,4.32,4.32,0,0,1,4.32-4.32Z" transform="translate(-13.016 -3.063)" fill="#919191"/><path d="M39.03,12.492A10.475,10.475,0,0,0,21.609,4.634a16.588,16.588,0,0,0-2.328-.166A17.275,17.275,0,0,0,2.994,27.518c0,.012.007.025.012.036a17.281,17.281,0,0,0,33.556-5.805,16.591,16.591,0,0,0-.138-2.113C37.913,17.012,39.03,14.4,39.03,12.492Zm-1.234,0c0,4.5-7.306,13.88-9.258,16.3-1.951-2.424-9.258-11.8-9.258-16.3a9.258,9.258,0,0,1,18.515,0ZM14.343,6.483V7.554a.617.617,0,0,1-.617.617,1.861,1.861,0,0,0-1.852,1.852v3.086a.617.617,0,0,1-.617.617H8.789a1.852,1.852,0,0,0,0,3.7h6.172a1.852,1.852,0,0,1,1.852,1.852v1.852a1.852,1.852,0,0,1-1.852,1.852h-.617a1.871,1.871,0,0,0-1.481.741l-1.234,1.644a1.847,1.847,0,0,0-.37,1.115v4.884l-1.018-1.018a1.25,1.25,0,0,1-.338-.629l-.309-1.543a1.858,1.858,0,0,0-1.816-1.49H4.015a16.036,16.036,0,0,1,10.328-20.2ZM4.469,27.921H7.777a.617.617,0,0,1,.6.5l.309,1.547a2.474,2.474,0,0,0,.674,1.256l1.02,1.02a1.234,1.234,0,0,0,2.109-.87V26.483a.6.6,0,0,1,.123-.37l1.234-1.645a.628.628,0,0,1,.494-.25h.617a3.09,3.09,0,0,0,3.086-3.086V19.28a3.09,3.09,0,0,0-3.086-3.086H8.789a.6.6,0,0,1-.439-.189.591.591,0,0,1-.178-.428.617.617,0,0,1,.617-.617h2.469a1.852,1.852,0,0,0,1.852-1.852V10.023a.6.6,0,0,1,.189-.439.591.591,0,0,1,.428-.178,1.852,1.852,0,0,0,1.852-1.852V6.139a16,16,0,0,1,3.7-.436c.422,0,.83.015,1.234.046a10.438,10.438,0,0,0-2.469,6.743c0,3.641,4.038,9.78,6.99,13.786a1.839,1.839,0,0,0-.983,1.339l-.272,1.642a.617.617,0,0,1-.607.515H20.737a1.238,1.238,0,0,0-.791.285l-2.773,2.317a1.83,1.83,0,0,0-.476,2.253l.731,1.462v1.6A16.086,16.086,0,0,1,4.469,27.921ZM19.281,37.8c-.207,0-.412-.008-.617-.015V35.944a.617.617,0,0,0-.065-.276l-.8-1.595a.606.606,0,0,1,.16-.747l2.778-2.319h2.438A1.845,1.845,0,0,0,25,29.46l.272-1.642a.617.617,0,0,1,.541-.5c1.223,1.613,2.132,2.709,2.251,2.852a.617.617,0,0,0,.948,0c.12-.144,1.033-1.244,2.261-2.864H32.76a.622.622,0,0,1,.527.294l.546.9A16.065,16.065,0,0,1,19.281,37.8ZM35.327,21.749a15.977,15.977,0,0,1-.913,5.328l-.073-.12a1.864,1.864,0,0,0-1.582-.888h-.567c.995-1.358,2.1-2.941,3.125-4.584C35.32,21.574,35.327,21.66,35.327,21.749Z" transform="translate(0 0)" fill="#919191"/></g></svg>