<svg xmlns="http://www.w3.org/2000/svg" width="27" height="42.286" viewBox="0 0 27 42.286"><g transform="translate(-92.543 -0.001)"><g transform="translate(92.543 0.001)"><g transform="translate(0 0)"><path d="M119.543,22.534a4.92,4.92,0,0,0-5-4.915,4.912,4.912,0,0,0,.115-4.842.618.618,0,0,0-1.089.584,3.68,3.68,0,0,1-4.953,5c-.088-.055-.177-.107-.269-.156a3.694,3.694,0,0,1-1.7-3.1v0a3.685,3.685,0,0,1,5.165-3.367.618.618,0,0,0,.5-1.131,4.909,4.909,0,0,0-5.676,1.257,14.475,14.475,0,0,1,3.188-8.291,11.748,11.748,0,0,0,.964,4.532.618.618,0,1,0,1.126-.51A11.319,11.319,0,0,1,111.1,2.3a11.88,11.88,0,0,1,1.624-1.154.618.618,0,0,0-.63-1.064,13.7,13.7,0,0,0-6.35,9.347,19.552,19.552,0,0,0-.344,2.393,4.914,4.914,0,0,0-7.886,5.791,4.916,4.916,0,1,0-.05,9.832h.023a4.912,4.912,0,0,0,4.333,7.387,4.916,4.916,0,1,0,8.425,0,4.863,4.863,0,0,0,3.06-1,.618.618,0,1,0-.749-.984,3.679,3.679,0,1,1-4.441-5.868,4.914,4.914,0,0,0,.754-.44,3.671,3.671,0,0,1,2.923,0,4.919,4.919,0,0,0,.754.44,3.677,3.677,0,0,1,1.344,3.872.618.618,0,0,0,1.2.314,4.9,4.9,0,0,0-.509-3.723A4.92,4.92,0,0,0,119.543,22.534ZM101.73,11.418a3.686,3.686,0,0,1,3.626,3.056c.019.332.042.559.053.655a3.685,3.685,0,0,1-5.256,3.295,4.923,4.923,0,0,0-.5-.289,3.679,3.679,0,0,1,2.077-6.717Zm-4.271,14.8a3.68,3.68,0,1,1,1.576-7.006,4.949,4.949,0,0,0,.5.289,3.679,3.679,0,0,1,.177,5.944,4.92,4.92,0,0,0-.861.5A3.658,3.658,0,0,1,97.46,26.214ZM101.73,33.6a3.684,3.684,0,0,1-2.254-6.587,4.92,4.92,0,0,0,.861-.5,3.67,3.67,0,0,1,2.855.029,4.923,4.923,0,0,0,.754.44A3.682,3.682,0,0,1,101.73,33.6Zm7.979,3.767a3.681,3.681,0,1,1-3.68-3.68A3.685,3.685,0,0,1,109.709,37.37Zm-1.465-11.9a4.929,4.929,0,0,0-.754.44,3.671,3.671,0,0,1-2.923,0,4.924,4.924,0,0,0-.754-.44,3.68,3.68,0,0,1,.239-6.039q.137-.074.269-.157a3.679,3.679,0,0,1,3.923,6.2Zm4.92.44a4.918,4.918,0,0,0-.754-.44,3.677,3.677,0,1,1,.754.44Z" transform="translate(-92.543 -0.001)" fill="#919191"/></g></g><g transform="translate(96.813 0.787)"><g transform="translate(0)"><path d="M154.182,11.546c-2.762-3.547-8.925-2.177-9.917,2.215a.618.618,0,0,0,.115.516,5.084,5.084,0,0,0,1.7,1.4.618.618,0,0,0,.566-1.1,3.913,3.913,0,0,1-1.1-.831,4.555,4.555,0,0,1,7.466-1.667,4.451,4.451,0,0,1-3.9,2.965.618.618,0,0,0,.11,1.231,5.643,5.643,0,0,0,5.076-4.212A.619.619,0,0,0,154.182,11.546Z" transform="translate(-144.25 -9.527)" fill="#919191"/></g></g></g></svg>