<svg xmlns="http://www.w3.org/2000/svg" width="74.182" height="50" viewBox="0 0 74.182 50"><g transform="translate(-635 -975)"><g transform="translate(635 975)"><path d="M74.182,92.026V88.114A8.114,8.114,0,0,0,66.068,80H8.114A8.114,8.114,0,0,0,0,88.114v3.912a.725.725,0,0,0,.724.724H73.457A.725.725,0,0,0,74.182,92.026Z" transform="translate(0 -80)" fill="#146ea6"/><path d="M0,200.724V225.5a8.114,8.114,0,0,0,8.114,8.114H66.068a8.114,8.114,0,0,0,8.114-8.114V200.724a.725.725,0,0,0-.724-.724H.724A.725.725,0,0,0,0,200.724ZM18.545,219.7a2.318,2.318,0,0,1-2.318,2.318H13.909a2.318,2.318,0,0,1-2.318-2.318v-2.318a2.318,2.318,0,0,1,2.318-2.318h2.318a2.318,2.318,0,0,1,2.318,2.318Z" transform="translate(0 -183.614)" fill="#146ea6"/></g></g></svg>