<svg xmlns="http://www.w3.org/2000/svg" width="16" height="16" viewBox="0 0 16 16"><g transform="translate(-0.001 -0.001)"><path d="M15.937,360.757l-1.685-2.248a.31.31,0,0,0-.217-.124,7.177,7.177,0,0,1-2.245-.565,3.689,3.689,0,0,0-1.462-.36,2.63,2.63,0,0,0-2.014,1.029v-.012a2.364,2.364,0,0,1,1.989-1.552,3.077,3.077,0,0,1,1.217.311,7.68,7.68,0,0,0,1.389.447.313.313,0,0,0,.37-.248.32.32,0,0,0-.242-.379,7.051,7.051,0,0,1-1.286-.415,3.653,3.653,0,0,0-1.448-.356A2.792,2.792,0,0,0,8,357.727a2.792,2.792,0,0,0-2.3-1.441,3.652,3.652,0,0,0-1.448.356,7.094,7.094,0,0,1-2.219.559.318.318,0,0,0-.28.35.315.315,0,0,0,.342.287,7.735,7.735,0,0,0,2.389-.6,3.075,3.075,0,0,1,1.217-.311,2.364,2.364,0,0,1,1.989,1.552v.012a2.631,2.631,0,0,0-2.014-1.029,3.69,3.69,0,0,0-1.462.36,7.177,7.177,0,0,1-2.244.565.311.311,0,0,0-.217.124L.066,360.757a.327.327,0,0,0-.033.337.312.312,0,0,0,.28.179H15.689a.312.312,0,0,0,.28-.179A.327.327,0,0,0,15.937,360.757ZM10.328,358.1a3.113,3.113,0,0,1,1.231.315,7.747,7.747,0,0,0,2.278.593l1.214,1.619A9.3,9.3,0,0,1,11.3,359.9a2.482,2.482,0,0,0-.975-.263,1.294,1.294,0,0,0-1.137.826l0,.009-.071.155h-.8v-.959a2.394,2.394,0,0,1,2.014-1.572Zm-8.162.907a7.752,7.752,0,0,0,2.279-.593,3.112,3.112,0,0,1,1.231-.315,2.394,2.394,0,0,1,2.014,1.572v.959h-.8l-.071-.155,0-.009a1.294,1.294,0,0,0-1.137-.826,2.482,2.482,0,0,0-.975.263,9.3,9.3,0,0,1-3.749.723ZM4.931,360.5a2.026,2.026,0,0,1,.744-.217.634.634,0,0,1,.517.35H4.6C4.72,360.586,4.829,360.542,4.931,360.5Zm4.879.132a.634.634,0,0,1,.517-.35,2.025,2.025,0,0,1,.744.218c.1.042.212.086.331.132Zm0,0" transform="translate(0 -345.272)" fill="#ccc"/><path d="M435.927,385.41h.012l.032,0a.32.32,0,0,0,.031-.639h-.011a.32.32,0,0,0-.063.638Zm0,0" transform="translate(-422.083 -372.758)" fill="#ccc"/><path d="M212.574,7.882a.32.32,0,0,0-.289.368,1.894,1.894,0,0,0,1.265,1.658q-.023.182-.042.364l-.171,1.627a.32.32,0,0,0,.285.352l.034,0a.32.32,0,0,0,.318-.287l.171-1.627q.019-.177.041-.353c1.49-.018,2.4-.968,2.855-2.977.051-.223.112-.484.183-.774A.32.32,0,0,0,217.1,5.9l.126-.072a.32.32,0,0,0,.152-.2c.56-2.227,1.379-5.188,1.387-5.218A.32.32,0,0,0,218.435,0c-.108.006-2.682.192-4.8,3.633l-.077.127a.321.321,0,0,0-.042.216l.16.988h-.544a.32.32,0,0,0-.295.195,6.98,6.98,0,0,0-.586,2.243.32.32,0,0,0,.091.246Zm4.212-2.546-.855.489a.32.32,0,0,0,.137.6l.444.03c-.035.149-.067.287-.1.414-.462,2.04-1.316,2.443-2.136,2.477a16.358,16.358,0,0,1,3.479-7.7c-.28,1.031-.661,2.458-.972,3.689Zm-3.437.271h.706a.32.32,0,0,0,.316-.372l-.2-1.243.013-.021a7.616,7.616,0,0,1,2.879-2.857,5.141,5.141,0,0,1,.5-.23,17.119,17.119,0,0,0-3.919,8.379,1.165,1.165,0,0,1-.636-.741h.328a.32.32,0,0,0,.229-.544l-.658-.672a6.313,6.313,0,0,1,.444-1.7Zm0,0" transform="translate(-205.73 0)" fill="#ccc"/></g></svg>