<svg xmlns="http://www.w3.org/2000/svg" width="15" height="15" viewBox="0 0 15 15"><g transform="translate(0 -12.676)"><g transform="translate(0 12.676)"><path d="M14.748,19.34l-1.267-1.215V14.1a.453.453,0,0,0-.441-.464H9.99a.453.453,0,0,0-.441.464v.258l-1.53-1.467a.738.738,0,0,0-1.036,0L.252,19.34a.833.833,0,0,0-.2.89.766.766,0,0,0,.717.517H1.845v6.464a.453.453,0,0,0,.441.464H5.975a.453.453,0,0,0,.441-.464V23.286H8.584v3.925a.453.453,0,0,0,.441.464h3.689a.453.453,0,0,0,.441-.464V20.747H14.23a.766.766,0,0,0,.717-.517A.833.833,0,0,0,14.748,19.34Zm-2.034.479a.453.453,0,0,0-.441.464v6.464H9.466V22.822a.453.453,0,0,0-.441-.464H5.975a.453.453,0,0,0-.441.464v3.925H2.727V20.283a.453.453,0,0,0-.441-.464H1.062L7.5,13.647l2.192,2.1a.425.425,0,0,0,.475.081.466.466,0,0,0,.263-.425v-.845H12.6V18.33a.475.475,0,0,0,.144.343l1.2,1.146Z" transform="translate(0 -12.676)" fill="#ccc"/></g></g></svg>