<svg xmlns="http://www.w3.org/2000/svg" width="47.125" height="62.833" viewBox="0 0 47.125 62.833"><g transform="translate(-64)"><g transform="translate(64)"><path d="M109.816,23.562h-3.927V18.326a18.326,18.326,0,1,0-36.653,0v5.236H65.309A1.308,1.308,0,0,0,64,24.871V57.6a5.241,5.241,0,0,0,5.236,5.236h36.653a5.241,5.241,0,0,0,5.236-5.236V24.871A1.308,1.308,0,0,0,109.816,23.562ZM91.482,50.907a1.309,1.309,0,0,1-1.3,1.453H84.944a1.309,1.309,0,0,1-1.3-1.453l.826-7.426a5.179,5.179,0,0,1-2.142-4.211,5.236,5.236,0,1,1,10.472,0,5.179,5.179,0,0,1-2.142,4.211Zm6.553-27.345H77.09V18.326a10.472,10.472,0,1,1,20.944,0Z" transform="translate(-64)" fill="#146ea6"/></g></g></svg>