<svg xmlns="http://www.w3.org/2000/svg" width="20.305" height="20.307" viewBox="0 0 20.305 20.307"><g transform="translate(0 -22.397)"><g transform="translate(7.485 30.655)"><path d="M161.791,203.821l-1.936-1.365a.53.53,0,0,0-.835.433v.835h-9.295a.53.53,0,0,0,0,1.06h9.295v.835a.531.531,0,0,0,.835.433l1.936-1.365A.531.531,0,0,0,161.791,203.821Z" transform="translate(-149.195 -202.358)" fill="#ccc"/></g><g transform="translate(0 22.397)"><g transform="translate(0 0)"><path d="M17.387,36.737a.583.583,0,0,0-.828.238A8.138,8.138,0,0,1,9.435,41.4c-4.534,0-8.223-3.97-8.223-8.849S4.9,23.7,9.435,23.7a8.138,8.138,0,0,1,7.124,4.425.583.583,0,0,0,.828.238.68.68,0,0,0,.221-.891A9.337,9.337,0,0,0,9.435,22.4C4.22,22.4,0,26.938,0,32.55S4.22,42.7,9.435,42.7a9.337,9.337,0,0,0,8.173-5.076A.68.68,0,0,0,17.387,36.737Z" transform="translate(0 -22.397)" fill="#ccc"/></g></g></g></svg>