<svg xmlns="http://www.w3.org/2000/svg" width="24" height="17.946" viewBox="0 0 24 17.946"><path d="M23,124.739H1a1.036,1.036,0,0,1,0-2.071H23a1.036,1.036,0,0,1,0,2.071Zm0,0" transform="translate(0 -114.73)" fill="#ccc"/><path d="M23,2.071H1A1.018,1.018,0,0,1,0,1.035,1.018,1.018,0,0,1,1,0H23a1.018,1.018,0,0,1,1,1.035A1.018,1.018,0,0,1,23,2.071Zm0,0" fill="#ccc"/><path d="M23,247.4H1a1.036,1.036,0,0,1,0-2.071H23a1.036,1.036,0,0,1,0,2.071Zm0,0" transform="translate(0 -229.457)" fill="#ccc"/></svg>