<svg xmlns="http://www.w3.org/2000/svg" width="5.566" height="16" viewBox="0 0 5.566 16"><path d="M145.38,3.972V0H143.5V3.972c0,.72-1.84,1.594-1.84,2.62V15.3a.745.745,0,0,0,.771.7h4.023a.746.746,0,0,0,.772-.7V6.593C147.221,5.566,145.38,4.693,145.38,3.972ZM143.9,5.139c-.119.12-.252.271-.4.445a5.789,5.789,0,0,0-.426.6c-.054.113-.109.231-.155.349a1.7,1.7,0,0,0-.032.375c.014.292.03.6.046.917.029.636.034,1.315.041,1.993,0,1.357-.058,2.714-.144,3.732-.038.509-.1.933-.129,1.229s-.066.467-.066.467-.03-.17-.066-.467-.091-.721-.129-1.229c-.086-1.018-.142-2.375-.144-3.732.007-.678.012-1.357.041-1.993.016-.318.032-.625.046-.917a1.768,1.768,0,0,1,.1-.466c.077-.138.162-.266.243-.386l.281-.318.289-.261c.188-.159.355-.294.5-.4a5.186,5.186,0,0,1,.473-.316S144.132,4.9,143.9,5.139Z" transform="translate(-141.655)" fill="#ccc"/></svg>