<svg xmlns="http://www.w3.org/2000/svg" width="26.526" height="21" viewBox="0 0 26.526 21"><g transform="translate(0 -53.333)"><path d="M26.484,64.038a.553.553,0,0,0-.12-.6l-9.947-9.947a.553.553,0,0,0-.781.781l9,9H.553a.553.553,0,0,0,0,1.105H24.64l-9,9a.553.553,0,1,0,.768.8l.014-.014,9.947-9.947A.554.554,0,0,0,26.484,64.038Z" transform="translate(0 0)" fill="#fff"/><path d="M299.2,74.348a.553.553,0,0,1-.391-.944l9.557-9.556-9.557-9.556a.553.553,0,0,1,.781-.781l9.947,9.947a.553.553,0,0,1,0,.781l-9.947,9.947A.552.552,0,0,1,299.2,74.348Z" transform="translate(-283.174 -0.021)" fill="#fff"/><path d="M25.974,246.318H.553a.553.553,0,1,1,0-1.105H25.974a.553.553,0,1,1,0,1.105Z" transform="translate(0 -181.939)" fill="#fff"/></g></svg>