<svg xmlns="http://www.w3.org/2000/svg" width="39.225" height="42.365" viewBox="0 0 39.225 42.365"><g transform="translate(-0.105)"><g transform="translate(0.105 0)"><path d="M3.971,22.937a6.452,6.452,0,0,1,3.28,5.525v8.4a.72.72,0,0,1-.636.7C3.751,37.993.787,39.377.787,40.953a1.424,1.424,0,0,0,1.436,1.412H17.307a1.424,1.424,0,0,0,1.436-1.412c0-1.574-2.963-2.959-5.828-3.389a.72.72,0,0,1-.636-.7v-8.4a6.452,6.452,0,0,1,3.28-5.525A7.827,7.827,0,0,0,19.232,18.1a7.346,7.346,0,0,0,.1-2.84L17.385,1.221A1.434,1.434,0,0,0,15.962,0H3.569A1.434,1.434,0,0,0,2.146,1.221L.2,15.264A7.36,7.36,0,0,0,.3,18.1a7.832,7.832,0,0,0,3.672,4.833Zm13.866-5.171a6.411,6.411,0,0,1-3.007,3.954,7.863,7.863,0,0,0-3.988,6.742v8.4a2.13,2.13,0,0,0,1.857,2.1c2.966.443,4.519,1.634,4.607,1.991l-15.083.021c.09-.378,1.643-1.569,4.609-2.012a2.13,2.13,0,0,0,1.857-2.1v-8.4A7.863,7.863,0,0,0,4.7,21.72a6.411,6.411,0,0,1-3.006-3.954,6.011,6.011,0,0,1-.072-2.309l.588-4.236c.182.119.359.247.539.38a5.327,5.327,0,0,0,3.542,1.284A5.34,5.34,0,0,0,9.838,11.6a4.079,4.079,0,0,1,5.365,0,5.748,5.748,0,0,0,2.334,1.165l.373,2.693a6.017,6.017,0,0,1-.073,2.312ZM3.569,1.412H15.962l1.365,9.817a5.466,5.466,0,0,1-1.259-.762,5.336,5.336,0,0,0-3.552-1.289,5.326,5.326,0,0,0-3.54,1.288,3.96,3.96,0,0,1-2.687,1.007A3.943,3.943,0,0,1,3.61,10.468,8.059,8.059,0,0,0,2.419,9.7Z" transform="translate(-0.105 0)" fill="#a5a5a5"/><path d="M7.284,25.619A3.619,3.619,0,0,1,5.61,23.381,3.553,3.553,0,0,1,5.6,22.107a.718.718,0,1,0-1.424-.194,4.879,4.879,0,0,0,.045,1.812,5.063,5.063,0,0,0,2.339,3.131.718.718,0,1,0,.728-1.238Z" transform="translate(-1.233 -6.299)" fill="#a5a5a5"/><path d="M48.125,30.464a.6.6,0,0,0-.057-.064,13,13,0,0,0-4.612-4.612.6.6,0,0,0-.064-.057c-.021-.011-.043-.012-.065-.022a12.829,12.829,0,0,0-12.8,0c-.022.009-.044.01-.065.022a.6.6,0,0,0-.064.057A13,13,0,0,0,25.788,30.4a.813.813,0,0,0-.057.065.667.667,0,0,0-.022.064,12.831,12.831,0,0,0,0,12.8.668.668,0,0,0,.022.064.739.739,0,0,0,.082.106,13,13,0,0,0,4.587,4.57.6.6,0,0,0,.064.057.726.726,0,0,0,.089.037,12.835,12.835,0,0,0,12.75,0,.726.726,0,0,0,.089-.037.6.6,0,0,0,.064-.057,13,13,0,0,0,4.587-4.57.739.739,0,0,0,.082-.106.669.669,0,0,0,.022-.064,12.831,12.831,0,0,0,0-12.8.67.67,0,0,0-.022-.064ZM43.282,46.5l-.7-1.221a.718.718,0,1,0-1.244.718l.7,1.212a11.4,11.4,0,0,1-4.388,1.178v-1.4a.718.718,0,1,0-1.436,0v1.4a11.4,11.4,0,0,1-4.388-1.175l.7-1.212a.718.718,0,1,0-1.244-.718l-.7,1.221a11.6,11.6,0,0,1-3.214-3.214l1.221-.7a.718.718,0,1,0-.718-1.244l-1.212.7a11.4,11.4,0,0,1-1.178-4.391h1.4a.718.718,0,1,0,0-1.436h-1.4a11.4,11.4,0,0,1,1.175-4.388l1.212.7a.718.718,0,1,0,.718-1.244l-1.221-.7a11.6,11.6,0,0,1,3.214-3.214l.7,1.221a.718.718,0,1,0,1.244-.718l-.7-1.212a11.4,11.4,0,0,1,4.391-1.178v1.4a.718.718,0,0,0,1.436,0v-1.4a11.4,11.4,0,0,1,4.388,1.175l-.7,1.212a.718.718,0,1,0,1.244.718l.7-1.221A11.6,11.6,0,0,1,46.5,30.572l-1.221.7a.718.718,0,1,0,.718,1.244l1.212-.7a11.4,11.4,0,0,1,1.178,4.391h-1.4a.718.718,0,0,0,0,1.436h1.4a11.4,11.4,0,0,1-1.175,4.388L46,41.334a.718.718,0,1,0-.718,1.244l1.221.7A11.6,11.6,0,0,1,43.282,46.5Z" transform="translate(-10.632 -7.495)" fill="#a5a5a5"/><path d="M45.309,38.464H42.436V32.718a.718.718,0,0,0-1.436,0v6.464a.718.718,0,0,0,.718.718h3.591a.718.718,0,1,0,0-1.436Z" transform="translate(-14.561 -9.495)" fill="#a5a5a5"/></g></g></svg>