<svg xmlns="http://www.w3.org/2000/svg" width="149.922" height="149.922" viewBox="0 0 149.922 149.922"><g transform="translate(1 1)"><g transform="translate(-1 -1)"><path d="M126.966,20.957a74.959,74.959,0,1,0,0,106.009A74.956,74.956,0,0,0,126.966,20.957Zm-8.834,97.174a62.466,62.466,0,1,1,0-88.34A62.463,62.463,0,0,1,118.132,118.131Z" transform="translate(1 1)" fill="#39bf11"/><path d="M197.54,150.167l-39.31,39.31-20.57-20.57a6.247,6.247,0,0,0-8.834,8.834l24.987,24.987a6.247,6.247,0,0,0,8.834,0L206.375,159a6.247,6.247,0,0,0-8.834-8.834Z" transform="translate(-89.517 -104.609)" fill="#39bf11"/></g></g></svg>