<svg xmlns="http://www.w3.org/2000/svg" width="93.325" height="91.545" viewBox="0 0 93.325 91.545"><g transform="matrix(0.719, 0.695, -0.695, 0.719, 45.848, -0.905)"><g transform="translate(44.881 17.237)"><path d="M351.47,134.29a1.934,1.934,0,1,0,0,2.735A1.915,1.915,0,0,0,351.47,134.29Z" transform="translate(-348.161 -133.716)" fill="#146ea6"/></g><g transform="translate(25.739 25.441)"><path d="M202.978,197.929a1.934,1.934,0,1,0,0,2.735A1.915,1.915,0,0,0,202.978,197.929Z" transform="translate(-199.669 -197.355)" fill="#146ea6"/></g><g transform="translate(28.474 44.583)"><path d="M224.191,346.422a1.934,1.934,0,1,0,0,2.734A1.915,1.915,0,0,0,224.191,346.422Z" transform="translate(-220.882 -345.848)" fill="#146ea6"/></g><g transform="translate(0 1.259)"><g transform="translate(0)"><path d="M64.57,36.024l-4.375-17.5a6.157,6.157,0,0,0-.41-1.066L52.045,25.2a5.8,5.8,0,1,1-2.735-2.735l7.739-7.739a6.157,6.157,0,0,0-1.066-.41l-17.5-4.375a5.827,5.827,0,0,0-5.524,1.531L1.7,42.724a5.793,5.793,0,0,0,0,8.2L23.579,72.8a5.793,5.793,0,0,0,8.2,0L63.038,41.548A5.826,5.826,0,0,0,64.57,36.024ZM23.579,31.785a5.8,5.8,0,1,1,0,8.2A5.793,5.793,0,0,1,23.579,31.785ZM34.517,59.131a5.8,5.8,0,1,1,0-8.2A5.793,5.793,0,0,1,34.517,59.131Zm7.05-13.117L16.956,48.748a1.935,1.935,0,1,1-.427-3.845L41.14,42.168a1.935,1.935,0,0,1,.427,3.845Z" transform="translate(0 -9.764)" fill="#146ea6"/></g></g><g transform="translate(57.05)"><path d="M450.937.574a1.915,1.915,0,0,0-2.734,0L442.56,6.217a5.545,5.545,0,0,1,2.735,2.735l5.643-5.643A1.915,1.915,0,0,0,450.937.574Z" transform="translate(-442.56)" fill="#146ea6"/></g></g></svg>