<svg xmlns="http://www.w3.org/2000/svg" width="20.398" height="48.364" viewBox="0 0 20.398 48.364"><g transform="translate(-148.023)"><path d="M196.5,25.834a.708.708,0,0,0,.708-.708V5.687a4.27,4.27,0,0,1,8.54,0V8.54a.708.708,0,1,0,1.417,0V5.687a5.687,5.687,0,0,0-11.374,0V25.126A.708.708,0,0,0,196.5,25.834Z" transform="translate(-43.254)" fill="#a5a5a5"/><path d="M164.6,132.445a1.806,1.806,0,0,1-.69-1.411V113.613a.708.708,0,0,0-1.417,0v17.421a3.216,3.216,0,0,0,1.22,2.516,8.782,8.782,0,1,1-10.974,0,3.2,3.2,0,0,0,1.214-2.511V130.2a.708.708,0,1,0-1.417,0v.835a1.794,1.794,0,0,1-.682,1.4,10.206,10.206,0,0,0,6.224,18.163h.146a10.2,10.2,0,0,0,6.375-18.159Z" transform="translate(0 -102.24)" fill="#a5a5a5"/><path d="M189.049,32.745A2.643,2.643,0,0,0,187.1,32a2.68,2.68,0,0,0-2.562,2.71V59.355a1.777,1.777,0,0,1-.849,1.521l-.25.154a7.132,7.132,0,0,0-3.413,6.18,7.216,7.216,0,0,0,7.073,7.107h.1a7.176,7.176,0,0,0,7.167-6.8,7.193,7.193,0,0,0-3.4-6.484l-.25-.154a1.776,1.776,0,0,1-.849-1.521V34.664a2.642,2.642,0,0,0-.817-1.919Zm-1.9.672h.049a1.25,1.25,0,0,1,1.247,1.247V37.7h-2.495V34.712A1.284,1.284,0,0,1,187.153,33.418Zm2.817,28.664.25.154A5.76,5.76,0,0,1,187.2,72.9h-.086a5.791,5.791,0,0,1-5.676-5.7,5.725,5.725,0,0,1,2.741-4.961l.25-.154a3.184,3.184,0,0,0,1.521-2.727V39.117h2.495v1.567h-.539a.708.708,0,0,0,0,1.417h.539v1.983h-.539a.708.708,0,0,0,0,1.417h.539v1.983h-.539a.708.708,0,0,0,0,1.417h.539v1.983h-.539a.708.708,0,0,0,0,1.417h.539v1.983h-.539a.708.708,0,0,0,0,1.417h.539v3.654A3.184,3.184,0,0,0,189.97,62.082Z" transform="translate(-28.979 -28.977)" fill="#a5a5a5"/></g></svg>