<svg xmlns="http://www.w3.org/2000/svg" width="63.709" height="50" viewBox="0 0 63.709 50"><g transform="translate(0 -64)"><g transform="translate(0 64)"><path d="M55.022,76.5H46.334V64H5.792A6.032,6.032,0,0,0,0,70.25v34.375H5.792c0,5.172,3.895,9.375,8.688,9.375s8.688-4.2,8.688-9.375H40.542c0,5.172,3.895,9.375,8.688,9.375s8.688-4.2,8.688-9.375h5.792V89ZM14.479,109.312a4.7,4.7,0,0,1,0-9.375,4.7,4.7,0,0,1,0,9.375Zm34.75,0a4.7,4.7,0,1,1,4.344-4.687A4.519,4.519,0,0,1,49.23,109.312ZM46.334,89V81.188h7.24L59.264,89Z" transform="translate(0 -64)" fill="#146ea6"/></g></g></svg>