<svg xmlns="http://www.w3.org/2000/svg" width="37" height="47.243" viewBox="0 0 37 47.243"><g transform="translate(0.001)"><g transform="translate(-0.001 0)"><path d="M6,28.169a18.36,18.36,0,0,0,2.065,8.481l.007.014a15.7,15.7,0,0,0,11.2,8.458c.017.02.031.04.049.06a3.133,3.133,0,0,0,2.325,1.06A3.1,3.1,0,0,0,24,45.127,15.7,15.7,0,0,0,35.22,36.663l.007-.014a18.506,18.506,0,0,0-1.652-19.577,14.761,14.761,0,0,0-17.322-5.025C10.091,14.526,6,20.966,6,28.169Zm29.6-.9H7.687A16.394,16.394,0,0,1,9.3,20.94H33.992A16.394,16.394,0,0,1,35.6,27.265ZM33.977,35.4H30.663a2.979,2.979,0,0,0-2.84-2.711h-2.9a3.866,3.866,0,0,0-6.545,0h-2.9A2.979,2.979,0,0,0,12.63,35.4H9.316a16.414,16.414,0,0,1-1.631-6.325H35.608A16.413,16.413,0,0,1,33.977,35.4ZM17.878,37.2H15.47a1.361,1.361,0,0,1,0-2.711h2.141a4.877,4.877,0,0,0,.266,2.711Zm1.3-1.807a2.6,2.6,0,0,1,2.47-2.711,2.723,2.723,0,0,1,0,5.422A2.6,2.6,0,0,1,19.176,35.4Zm6.506-.9h2.141a1.361,1.361,0,0,1,0,2.711H25.415a4.877,4.877,0,0,0,.266-2.711ZM10.337,37.2h2.54a2.876,2.876,0,0,0,2.593,1.807h2.882v3.615a3.959,3.959,0,0,0,.036.473A13.982,13.982,0,0,1,10.337,37.2Zm10.147,6.7a1.044,1.044,0,0,1-.106-.133.268.268,0,0,0-.018-.025l-.014-.018c-.015-.021-.029-.042-.044-.06a1.973,1.973,0,0,1-.3-1.043V39.533a3.732,3.732,0,0,0,3.294,0v3.094a1.97,1.97,0,0,1-.3,1.04.753.753,0,0,0-.054.07,1.635,1.635,0,0,1-1.194.67A1.6,1.6,0,0,1,20.484,43.905ZM24.9,43.1a3.958,3.958,0,0,0,.036-.474V39.012h2.882A2.876,2.876,0,0,0,30.416,37.2h2.54A13.982,13.982,0,0,1,24.9,43.1Zm8.038-23.968H10.351a13.6,13.6,0,0,1,11.3-6.325A13.6,13.6,0,0,1,32.942,19.132Z" transform="translate(-3.142 -4.712)" fill="#919191"/><path d="M23.2.9A2.275,2.275,0,0,0,21.382,0H17.62A2.276,2.276,0,0,0,15.8.9a2.4,2.4,0,0,0-.428,2.037L15.9,5.087A18.652,18.652,0,0,0,1.637,18.7,19.136,19.136,0,0,0,7.274,37.786L3.959,43.709a2.406,2.406,0,0,0,.008,2.358,2.3,2.3,0,0,0,2,1.176H33.034a2.3,2.3,0,0,0,2-1.178,2.406,2.406,0,0,0,.007-2.356l-3.315-5.924A19.136,19.136,0,0,0,37.363,18.7,18.653,18.653,0,0,0,23.1,5.087l.526-2.151A2.4,2.4,0,0,0,23.2.9Zm9.4,41.617H27.981a.788.788,0,0,0,0,1.575h5.5l.222.394a.8.8,0,0,1,0,.788.768.768,0,0,1-.669.393H5.969a.768.768,0,0,1-.669-.393.8.8,0,0,1,0-.788l.222-.394h5.5a.788.788,0,0,0,0-1.575H6.4l2.081-3.725a18.149,18.149,0,0,0,22.031,0Zm3.861-18.9A17.144,17.144,0,0,1,19.5,40.944,17.144,17.144,0,0,1,2.542,23.622,17.144,17.144,0,0,1,19.5,6.3,17.163,17.163,0,0,1,36.461,23.622ZM19.5,4.724a18.156,18.156,0,0,0-2.07.121l-.557-2.283a.809.809,0,0,1,.143-.687.756.756,0,0,1,.6-.3h3.762a.756.756,0,0,1,.6.3.81.81,0,0,1,.145.684l-.559,2.287a18.156,18.156,0,0,0-2.07-.121Z" transform="translate(-0.999 0)" fill="#919191"/></g></g></svg>