<svg id="winery-icon" xmlns="http://www.w3.org/2000/svg" width="16" height="16" viewBox="0 0 16 16">
  <path id="Caminho_55" data-name="Caminho 55" d="M321.541,492a.353.353,0,1,0,.25.1A.356.356,0,0,0,321.541,492Zm0,0" transform="translate(-309.982 -476.706)" fill="#ccc"/>
  <path id="Caminho_56" data-name="Caminho 56" d="M71.942,372.152A1.059,1.059,0,1,0,73,373.211,1.06,1.06,0,0,0,71.942,372.152Zm0,1.412a.353.353,0,1,1,.353-.353A.353.353,0,0,1,71.942,373.564Zm0,0" transform="translate(-68.413 -360.722)" fill="#ccc"/>
  <path id="Caminho_57" data-name="Caminho 57" d="M200.247,374.27a1.059,1.059,0,1,0-1.059-1.059A1.06,1.06,0,0,0,200.247,374.27Zm0-1.412a.353.353,0,1,1-.353.353A.353.353,0,0,1,200.247,372.858Zm0,0" transform="translate(-192.247 -360.722)" fill="#ccc"/>
  <path id="Caminho_58" data-name="Caminho 58" d="M328.551,374.27a1.059,1.059,0,1,0-1.059-1.059A1.06,1.06,0,0,0,328.551,374.27Zm0-1.412a.353.353,0,1,1-.353.353A.353.353,0,0,1,328.551,372.858Zm0,0" transform="translate(-316.08 -360.722)" fill="#ccc"/>
  <path id="Caminho_59" data-name="Caminho 59" d="M16,10a.926.926,0,0,0-.972-.87h-.784a2.152,2.152,0,0,0,0-3.385h.784A.926.926,0,0,0,16,4.879a.926.926,0,0,0-.972-.87h-.784a2.207,2.207,0,0,0,.823-1.692A2.467,2.467,0,0,0,12.479,0a2.656,2.656,0,0,0-2.239,1.157A2.656,2.656,0,0,0,8,0,2.656,2.656,0,0,0,5.761,1.157,2.656,2.656,0,0,0,3.522,0,2.467,2.467,0,0,0,.933,2.317a2.207,2.207,0,0,0,.823,1.692H.972A.926.926,0,0,0,0,4.879a.926.926,0,0,0,.972.87h.784a2.152,2.152,0,0,0,0,3.385H.972A.926.926,0,0,0,0,10a.926.926,0,0,0,.972.87h.784a2.152,2.152,0,0,0,0,3.385H.972a.876.876,0,1,0,0,1.74h9.267a.314.314,0,1,0,0-.625H.972a.247.247,0,1,1,0-.49H15.028a.247.247,0,1,1,0,.49H12.887a.314.314,0,1,0,0,.625h2.141a.876.876,0,1,0,0-1.74h-.784a2.152,2.152,0,0,0,0-3.385h.784A.926.926,0,0,0,16,10ZM14.369,7.442a1.8,1.8,0,0,1-1.89,1.692,1.8,1.8,0,0,1-1.89-1.692,1.8,1.8,0,0,1,1.89-1.692,1.8,1.8,0,0,1,1.89,1.692Zm-8.259,0A1.8,1.8,0,0,1,8,5.75,1.8,1.8,0,0,1,9.89,7.442,1.8,1.8,0,0,1,8,9.134,1.8,1.8,0,0,1,6.11,7.442Zm.125,1.692H5.287A2.394,2.394,0,0,0,5.761,8.6,2.394,2.394,0,0,0,6.235,9.134ZM5.761,6.282a2.4,2.4,0,0,0-.474-.532h.947A2.394,2.394,0,0,0,5.761,6.282Zm4-.532h.947a2.4,2.4,0,0,0-.474.532,2.4,2.4,0,0,0-.474-.532ZM10.239,8.6a2.4,2.4,0,0,0,.474.532H9.766A2.394,2.394,0,0,0,10.239,8.6ZM12.479.625a1.8,1.8,0,0,1,1.89,1.692,1.8,1.8,0,0,1-1.89,1.692,1.8,1.8,0,0,1-1.89-1.692A1.8,1.8,0,0,1,12.479.625ZM10.713,4.009H9.766a2.4,2.4,0,0,0,.474-.532A2.4,2.4,0,0,0,10.713,4.009ZM8,.625A1.8,1.8,0,0,1,9.89,2.317,1.8,1.8,0,0,1,8,4.009,1.8,1.8,0,0,1,6.11,2.317,1.8,1.8,0,0,1,8,.625ZM6.235,4.009H5.287a2.4,2.4,0,0,0,.474-.532A2.4,2.4,0,0,0,6.235,4.009Zm-4.6-1.692A1.8,1.8,0,0,1,3.522.625a1.8,1.8,0,0,1,1.89,1.692,1.8,1.8,0,0,1-1.89,1.692,1.8,1.8,0,0,1-1.89-1.692ZM.972,5.125a.247.247,0,1,1,0-.49H15.028a.247.247,0,1,1,0,.49Zm.659,2.317A1.8,1.8,0,0,1,3.522,5.75a1.8,1.8,0,0,1,1.89,1.692,1.8,1.8,0,0,1-1.89,1.692,1.8,1.8,0,0,1-1.89-1.692Zm0,5.125a1.8,1.8,0,0,1,1.89-1.692,1.8,1.8,0,0,1,1.89,1.692,1.8,1.8,0,0,1-1.89,1.692,1.8,1.8,0,0,1-1.89-1.692Zm8.259,0A1.8,1.8,0,0,1,8,14.259a1.8,1.8,0,0,1-1.89-1.692A1.8,1.8,0,0,1,8,10.875,1.8,1.8,0,0,1,9.89,12.567Zm-.125-1.692h.947a2.4,2.4,0,0,0-.474.532,2.4,2.4,0,0,0-.474-.532Zm-4,.532a2.4,2.4,0,0,0-.474-.532h.947A2.394,2.394,0,0,0,5.761,11.407Zm-.474,2.852a2.4,2.4,0,0,0,.474-.532,2.4,2.4,0,0,0,.474.532Zm4.479,0a2.4,2.4,0,0,0,.474-.532,2.4,2.4,0,0,0,.474.532Zm4.6-1.692a1.8,1.8,0,0,1-1.89,1.692,1.8,1.8,0,0,1-1.89-1.692,1.8,1.8,0,0,1,1.89-1.692A1.8,1.8,0,0,1,14.369,12.567ZM.972,10.25a.247.247,0,1,1,0-.49H15.028a.247.247,0,1,1,0,.49Zm0,0" transform="translate(0 0)" fill="#ccc"/>
  <path id="Caminho_60" data-name="Caminho 60" d="M71.942,208.152A1.059,1.059,0,1,0,73,209.211,1.06,1.06,0,0,0,71.942,208.152Zm0,1.412a.353.353,0,1,1,.353-.353A.353.353,0,0,1,71.942,209.564Zm0,0" transform="translate(-68.413 -201.759)" fill="#ccc"/>
  <path id="Caminho_61" data-name="Caminho 61" d="M200.247,208.152a1.059,1.059,0,1,0,1.059,1.059A1.06,1.06,0,0,0,200.247,208.152Zm0,1.412a.353.353,0,1,1,.353-.353A.353.353,0,0,1,200.247,209.564Zm0,0" transform="translate(-192.247 -201.759)" fill="#ccc"/>
  <path id="Caminho_62" data-name="Caminho 62" d="M328.551,210.27a1.059,1.059,0,1,0-1.059-1.059A1.06,1.06,0,0,0,328.551,210.27Zm0-1.412a.353.353,0,1,1-.353.353A.353.353,0,0,1,328.551,208.858Zm0,0" transform="translate(-316.08 -201.759)" fill="#ccc"/>
  <path id="Caminho_63" data-name="Caminho 63" d="M71.942,44.152A1.059,1.059,0,1,0,73,45.211,1.06,1.06,0,0,0,71.942,44.152Zm0,1.412a.353.353,0,1,1,.353-.353A.353.353,0,0,1,71.942,45.564Zm0,0" transform="translate(-68.413 -42.594)" fill="#ccc"/>
  <path id="Caminho_64" data-name="Caminho 64" d="M200.247,46.27a1.059,1.059,0,1,0-1.059-1.059A1.06,1.06,0,0,0,200.247,46.27Zm0-1.412a.353.353,0,1,1-.353.353A.353.353,0,0,1,200.247,44.858Zm0,0" transform="translate(-192.247 -42.594)" fill="#ccc"/>
  <path id="Caminho_65" data-name="Caminho 65" d="M328.551,46.27a1.059,1.059,0,1,0-1.059-1.059A1.06,1.06,0,0,0,328.551,46.27Zm0-1.412a.353.353,0,1,1-.353.353A.353.353,0,0,1,328.551,44.858Zm0,0" transform="translate(-316.08 -42.594)" fill="#ccc"/>
</svg>
