<svg id="wine-bottle" xmlns="http://www.w3.org/2000/svg" width="4.257" height="16.637" viewBox="0 0 4.257 16.637">
  <path id="Caminho_10" data-name="Caminho 10" d="M144.5,4.131V0h-1.441V4.131c0,.749-1.407,1.657-1.407,2.724v9.056c0,.272.182.726.59.726h3.076c.408,0,.591-.454.591-.726V6.855C145.912,5.788,144.5,4.88,144.5,4.131Zm-1.13,1.213c-.091.124-.193.281-.3.462a6.355,6.355,0,0,0-.326.622c-.041.117-.083.24-.119.363a2.384,2.384,0,0,0-.025.39c.011.3.023.623.035.954.022.661.026,1.367.032,2.072,0,1.411-.044,2.822-.11,3.881-.029.529-.076.97-.1,1.278s-.05.485-.05.485-.023-.177-.051-.485-.07-.749-.1-1.278c-.066-1.058-.109-2.47-.11-3.881.005-.705.009-1.411.031-2.072.012-.33.024-.65.035-.954a2.418,2.418,0,0,1,.078-.485c.059-.143.124-.276.186-.4l.215-.331.221-.272c.144-.166.271-.305.383-.415a4.1,4.1,0,0,1,.362-.328S143.549,5.091,143.373,5.344Z" transform="translate(-141.655)" fill="#ccc"/>
</svg>
